<?xml version="1.0" encoding="utf-8"?>
<!-- Generator: Adobe Illustrator 19.2.1, SVG Export Plug-In . SVG Version: 6.00 Build 0)  -->
<svg version="1.1" id="Capa_1" xmlns="http://www.w3.org/2000/svg" xmlns:xlink="http://www.w3.org/1999/xlink" x="0px" y="0px"
	 viewBox="0 0 512 512" style="enable-background:new 0 0 512 512;" xml:space="preserve">
<style type="text/css">
	.st0{fill:#FFFFFF;}
</style>
<g>
	<g id="Layer_1_31_">
		<g>
			<path class="st0" d="M256,142.7c11.4,0,20.6-9.2,20.6-20.6V70.6c0-11.4-9.2-20.6-20.6-20.6c-11.4,0-20.6,9.2-20.6,20.6v10.3
				h-48.9v41.2h48.9C235.4,133.5,244.6,142.7,256,142.7z"/>
			<path class="st0" d="M366.7,142.7c11.4,0,20.6-9.2,20.6-20.6V70.6c0-11.4-9.2-20.6-20.6-20.6c-11.4,0-20.6,9.2-20.6,20.6v10.3
				h-48.9v41.2h48.9C346.1,133.5,355.3,142.7,366.7,142.7z"/>
			<path class="st0" d="M462,80.9h-54.1v41.2h33.5v61.8H70.6v-61.8h54.1c0,11.4,9.2,20.6,20.6,20.6s20.6-9.2,20.6-20.6V70.6
				c0-11.4-9.2-20.6-20.6-20.6s-20.6,9.2-20.6,20.6v10.3H50c-11.4,0-20.6,9.2-20.6,20.6v309c0,11.4,9.2,20.6,20.6,20.6h105.8
				c-8.8-12.3-15.5-26.2-19.3-41.2H70.6V204.5h370.8v185.4h-65.9c-3.9,15-10.5,28.9-19.3,41.2H462c11.4,0,20.6-9.2,20.6-20.6v-309
				C482.6,90.1,473.4,80.9,462,80.9z"/>
			<path class="st0" d="M304.8,376.4l-32.6-18.8c-0.4-4.9-3-9.3-6.9-12v-56.8c0-5.2-4.2-9.4-9.4-9.4s-9.4,4.2-9.4,9.4v56.8
				c-4.2,3-7,7.9-7,13.4c0,9,7.4,16.4,16.4,16.4c2.5,0,4.8-0.6,6.9-1.6l32.6,18.8c1.5,0.8,3.1,1.3,4.7,1.3c3.2,0,6.4-1.7,8.1-4.7
				C310.9,384.7,309.3,379,304.8,376.4z M256,366c-3.9,0-7-3.2-7-7c0-3.9,3.2-7,7-7c3.9,0,7,3.2,7,7C263,362.9,259.9,366,256,366z"
				/>
			<path class="st0" d="M256,256c-56.8,0-103,46.2-103,103c0,56.8,46.2,103,103,103c56.8,0,103-46.2,103-103
				C359,302.2,312.8,256,256,256z M256,443.3c-46.5,0-84.3-37.8-84.3-84.3s37.8-84.3,84.3-84.3c46.5,0,84.3,37.8,84.3,84.3
				C340.3,405.5,302.5,443.3,256,443.3z"/>
		</g>
	</g>
</g>
</svg>
