<?xml version="1.0" encoding="iso-8859-1"?>
<!-- Generator: Adobe Illustrator 19.1.0, SVG Export Plug-In . SVG Version: 6.00 Build 0)  -->
<svg version="1.1" id="Capa_1" xmlns="http://www.w3.org/2000/svg" xmlns:xlink="http://www.w3.org/1999/xlink" x="0px" y="0px"
	 viewBox="0 0 487.9 487.9" style="enable-background:new 0 0 487.9 487.9;" xml:space="preserve">
<g>
	<g>
		<path d="M333.55,0h-179.2c-28.9,0-52.5,23.6-52.5,52.5v382.9c0,28.9,23.6,52.5,52.5,52.5h179.2c28.9,0,52.5-23.6,52.5-52.5V328.7
			V97.4V52.5C386.05,23.7,362.45,0,333.55,0z M266.45,465.9h-50.5c-7.5,0-13.6-6.1-13.6-13.6s6.1-13.6,13.6-13.6h50.5
			c7.5,0,13.6,6.1,13.6,13.6S273.95,465.9,266.45,465.9z M358.15,87.3v10.1v230.9v26.8v48c0,7.4-6.1,13.5-13.5,13.5h-201.5
			c-7.4,0-13.5-6.1-13.5-13.5V85c0-7.4,6.1-13.5,13.5-13.5h201.5c7.4,0,13.5,6.1,13.5,13.5V87.3z"/>
		<path d="M308.05,280c-21.1-8.1-33.8-16.3-33.8-16.3l-16.3,51.5l-2.2,7l-7.3-20.7c16.8-23.4-1.3-24.5-4.4-24.5l0,0c0,0,0,0-0.1,0
			l0,0l0,0c0,0,0,0-0.1,0l0,0c-3.1,0-21.1,1.1-4.4,24.5l-7.3,20.7l-2.2-7l-16.3-51.5c0,0-12.7,8.3-33.8,16.3
			c-21.3,7.7-21.9,24.4-22.2,54.7c0,4.8,3.9,8.8,8.7,8.8h73.2h4.5h77.5c4.8,0,8.7-4,8.7-8.8C329.95,304.5,329.35,287.8,308.05,280z"
			/>
		<path d="M207.35,231c1.9,12.1,11.2,27.5,26.5,32.9c6.3,2.2,13.2,2.2,19.5,0c15.1-5.4,24.7-20.8,26.6-32.9c2-0.2,4.7-3,7.6-13.2
			c3.9-13.9-0.2-16-3.8-15.6c0.7-1.9,1.2-3.8,1.5-5.7c6-36-11.7-37.3-11.7-37.3s-2.9-5.7-10.7-9.9c-5.2-3.1-12.4-5.5-22-4.6
			c-3.1,0.1-6,0.7-8.7,1.7l0,0c-3.5,1.2-6.7,2.9-9.6,4.9c-3.6,2.3-6.9,5-9.9,8.2c-4.7,4.8-8.9,11-10.7,18.8
			c-1.5,5.8-1.2,11.8,0.1,18.3l0,0c0.3,1.9,0.8,3.8,1.5,5.7c-3.5-0.3-7.7,1.7-3.8,15.6C202.65,228,205.35,230.9,207.35,231z"/>
	</g>
</g>
<g>
</g>
<g>
</g>
<g>
</g>
<g>
</g>
<g>
</g>
<g>
</g>
<g>
</g>
<g>
</g>
<g>
</g>
<g>
</g>
<g>
</g>
<g>
</g>
<g>
</g>
<g>
</g>
<g>
</g>
</svg>
