<?xml version="1.0" encoding="utf-8"?>
<!-- Generator: Adobe Illustrator 19.2.1, SVG Export Plug-In . SVG Version: 6.00 Build 0)  -->
<svg version="1.1" id="Capa_1" xmlns="http://www.w3.org/2000/svg" xmlns:xlink="http://www.w3.org/1999/xlink" x="0px" y="0px"
	 viewBox="0 0 512 512" style="enable-background:new 0 0 512 512;" xml:space="preserve">
<style type="text/css">
	.st0{fill:#767676;}
</style>
<g>
	<g>
		<path class="st0" d="M160.8,187.5L160.8,187.5c0.1,0,0.1,0,0.2,0s0.1,0,0.2,0l0,0c32.3-0.4,27.7-43.5,27.7-43.5
			c-1.4-28.9-25.5-28.6-27.8-28.6c-2.3-0.1-26.6-0.4-27.8,28.6C133,143.9,128.4,187.2,160.8,187.5z"/>
		<path class="st0" d="M228.5,143.9c0,0-4.7,43.2,27.7,43.5l0,0c0.1,0,0.1,0,0.2,0s0.1,0,0.2,0l0,0c32.3-0.4,27.7-43.5,27.7-43.5
			c-1.4-28.9-25.5-28.6-27.8-28.6C254,115.4,229.9,115.1,228.5,143.9z"/>
		<path class="st0" d="M323.9,143.9c0,0-4.7,43.2,27.7,43.5l0,0c0.1,0,0.1,0,0.2,0s0.1,0,0.2,0l0,0c32.3-0.4,27.7-43.5,27.7-43.5
			c-1.4-28.9-25.5-28.6-27.8-28.6C349.4,115.4,325.3,115.1,323.9,143.9z"/>
		<path class="st0" d="M406.8,216.9c-2.8-2.8-4.2-4.1-7.4-6.5c-12-8.8-26.8-14.8-26.8-14.8l-11.3,35.5l-6.6-18.6
			c11.8-16.4-1.4-16.9-3.2-16.9s-15,0.5-3.2,16.9l-6.6,18.6l-11.3-35.5c0,0-14.7,5.9-26.8,14.8c0,0,0,0-0.1,0c0,0,0,0-0.1,0
			c-12-8.8-26.8-14.8-26.8-14.8l-11.3,35.5l-6.6-18.6c11.8-16.4-1.4-16.9-3.2-16.9s-15,0.5-3.2,16.9l-6.6,18.6L235,195.6
			c0,0-14.7,5.9-26.8,14.8c0,0,0,0-0.1,0c0,0,0,0-0.1,0c-12-8.8-26.8-14.8-26.8-14.8l-11.3,35.5l-6.6-18.6
			c11.8-16.4-1.4-16.9-3.2-16.9c-1.8,0-15,0.5-3.2,16.9l-6.6,18.6l-11.3-35.5c0,0-14.7,5.9-26.8,14.8c-3.2,2.3-4.6,3.7-7.4,6.5
			c-6.7,6.7-3.9,45.1,0,59.3c3.9,14.1,15.1,34.3,15.1,34.3c2.3,5.1,3.7,10.6,4.2,16.2L139,468.1c0.5,4.5,4.2,7.9,8.7,7.9h12.4h12.4
			c4.5,0,8.3-3.4,8.7-7.9l14.4-141.3c0.5-5.6,2-11.1,4.2-16.2c0,0,3.9-6.8,7.8-15.4c4,8.6,7.8,15.4,7.8,15.4
			c2.3,5.1,3.7,10.6,4.2,16.2l14.4,141.3c0.5,4.5,4.2,7.9,8.7,7.9h13.3h12.4c4.5,0,8.3-3.4,8.7-7.9L292,326.7
			c0.5-5.6,2-11.1,4.2-16.2c0,0,3.9-6.8,7.8-15.4c4,8.6,7.8,15.4,7.8,15.4c2.3,5.1,3.7,10.6,4.2,16.2l14.4,141.3
			c0.5,4.5,4.2,7.9,8.7,7.9h12.4h12.4c4.5,0,8.3-3.4,8.7-7.9l14.4-141.3c0.5-5.6,2-11.1,4.2-16.2c0,0,11.3-20.2,15.1-34.3
			C410.7,262,413.5,223.5,406.8,216.9z"/>
		<path class="st0" d="M208.8,108.1L208.8,108.1c0.1,0,0.1,0,0.2,0c0.1,0,0.1,0,0.2,0l0,0c32.3-0.4,27.7-43.5,27.7-43.5
			C235.5,35.7,211.3,35.9,209,36c-2.3-0.1-26.6-0.4-27.8,28.6C181.1,64.6,176.5,107.8,208.8,108.1z"/>
		<path class="st0" d="M304.3,108.1L304.3,108.1c0.1,0,0.1,0,0.2,0s0.1,0,0.2,0l0,0c32.3-0.4,27.7-43.5,27.7-43.5
			C331,35.7,306.8,35.9,304.5,36c-2.3-0.1-26.6-0.4-27.8,28.6C276.5,64.6,271.9,107.8,304.3,108.1z"/>
	</g>
</g>
</svg>
