<?xml version="1.0" encoding="utf-8"?>
<!-- Generator: Adobe Illustrator 19.2.1, SVG Export Plug-In . SVG Version: 6.00 Build 0)  -->
<svg version="1.1" id="Layer_1" xmlns="http://www.w3.org/2000/svg" xmlns:xlink="http://www.w3.org/1999/xlink" x="0px" y="0px"
	 viewBox="0 0 200 200" style="enable-background:new 0 0 200 200;" xml:space="preserve">
<style type="text/css">
	.st0{fill:#032D6C;}
</style>
<title>logo_cs</title>
<g>
	<path class="st0" d="M170.5,96.5c-0.2-0.1-0.4-0.3-0.6-0.4c-5.5-5.3-11-10.5-16.3-16c-2.6-2.9-5.1-5.9-7.4-9
		c-2.2-2.9-3.3-6.4-3.2-10c-0.2-6.6-0.2-13.1-0.3-19.7c0-0.4,0-0.9,0-1.3c-0.1-3.4-2.1-4.4-5.1-4.2c-2.6,0.2-4.2,1.9-4.7,5
		c-0.2,1.2-0.3,2.3-0.3,3.5c-0.1,6.5-0.1,13.1-0.2,19.6c-0.1,3.4,1,6.8,3,9.6c2.7,3.7,5.7,7.2,9,10.4c6.4,6.6,12.8,13.1,19.2,19.7
		c2.2,2.2,4.2,4.7,5.9,7.4c2.5,4.3,3.7,9.2,3.6,14.2c0,6.5,0,12.9,0,19.4c0,4.8-1.2,9.6-3.7,13.7c-3,4.8-7.3,7.9-12.6,9.8
		c-5.3,1.8-10.8,2.8-16.4,2.8c-6.5,0.2-13-0.1-19.3-1.9c-4.8-1.4-9.1-3.5-12.5-7.3c-2.8-3.3-4.6-7.3-5.1-11.6
		c-0.2-1.7-0.3-3.5-0.3-5.2c0-15.6,0-31.2,0-46.8V97c0.4,0.3,0.6,0.5,0.8,0.7c6.7,6.8,13.5,13.7,20.2,20.5c1.4,1.3,2.7,2.8,3.9,4.3
		c2.2,3,2.9,6.6,2.9,10.2c0.1,8.6,0.1,17.2,0.1,25.8c0,0.6,0,1.3,0.1,1.9c0.3,1.6,1.5,2.9,3.2,3.3c1.6,0.4,3.3,0.4,4.9,0
		c1.7-0.4,2.9-1.8,3.1-3.5c0.1-0.6,0.1-1.2,0.1-1.8c0-9.5,0-19,0-28.5c-0.1-3.7-1.4-7.4-3.6-10.4c-2.4-3.8-5.6-6.9-8.7-10.1
		c-6.6-6.7-13.1-13.4-19.6-20.1c-2.8-2.7-4.9-6-6.1-9.6c-0.7-2-1.1-4.1-1.3-6.2c-0.2-6.8-0.2-13.5,0-20.3c0.2-6.5,2.5-12.2,7.5-16.6
		c3.2-2.7,7-4.7,11.1-5.8c4.4-1.2,8.8-1.8,13.3-1.9c5-0.3,10.1,0.1,15.1,1c4.9,1,9.4,2.7,13.1,6c3.8,3.5,6.2,8.4,6.6,13.5
		c0.2,1.5,0.2,3,0.2,4.5c0,13.9,0,27.7,0,41.6L170.5,96.5L170.5,96.5z"/>
	<path class="st0" d="M94.2,96.3c0,0.6,0,0.9,0,1.2c0,16.8-0.1,33.6,0.1,50.4c0.1,8.1-3.7,13.7-10.4,17.6c-6.8,4-14.7,5.9-22.6,5.6
		c-5.4,0-10.7-0.6-15.9-1.9c-4.4-1.1-8.5-3.2-11.9-6.3c-3.5-3.3-5.7-7.7-6.2-12.5c-0.2-1.7-0.3-3.5-0.3-5.2c0-29.5,0-59,0-88.5
		c-0.1-4,0.5-7.9,1.8-11.7C31,39.4,35.4,34.9,41,32.6c4.8-2,10-3.2,15.2-3.5c6-0.5,12.1-0.2,18,0.8c4,0.7,7.9,2.3,11.2,4.6
		c5.1,3.7,7.7,8.8,8.4,14.9c0.2,1.3,0.2,2.5,0.2,3.8c0,6.1,0.1,12.2,0,18.3c0.1,6.8-2.6,13.3-7.4,18.1c-6.6,6.6-13.1,13.3-19.7,20
		c-0.2,0.2-0.3,0.3-0.7,0.6c0-0.5-0.1-0.9-0.1-1.2c0-22.5,0-45,0-67.4c0-3-1.3-4.3-4.4-4.4c-1.1,0-2.3,0.1-3.4,0.5
		c-1.3,0.3-2.1,1.5-2.1,2.8c0,0.5,0,1.1,0,1.6c0,39.1,0,78.3,0,117.4c0,0.4,0,0.7,0,1c-0.1,1.4,0.9,2.8,2.3,3.1
		c1.7,0.6,3.5,0.6,5.1,0.1c1.4-0.4,2.4-1.6,2.4-3.1c0-0.4,0-0.9,0-1.3c0-8.3,0-16.7,0.1-25c0-5.6,1.9-11,5.5-15.2
		c1.9-2.2,4.1-4.3,6.1-6.4c5.1-5.2,10.3-10.4,15.5-15.6C93.6,96.9,93.8,96.7,94.2,96.3z"/>
</g>
</svg>
