<?xml version="1.0" encoding="utf-8"?>
<!-- Generator: Adobe Illustrator 19.2.1, SVG Export Plug-In . SVG Version: 6.00 Build 0)  -->
<svg version="1.1" id="Layer_1" xmlns="http://www.w3.org/2000/svg" xmlns:xlink="http://www.w3.org/1999/xlink" x="0px" y="0px"
	 viewBox="0 0 200 200" style="enable-background:new 0 0 200 200;" xml:space="preserve">
<style type="text/css">
	.st0{fill:#032D6C;}
</style>
<title>logo_law</title>
<g id="p1jwgV">
	<g>
		<path class="st0" d="M135.8,156.5l-17,2.1c-0.9-4.4-1.8-8.6-2.7-12.8c-1.8-8.9-3.6-17.9-5.5-26.8c-1.9-8.7-3.8-17.4-5.8-26
			c-0.6-2.4-1.5-4.7-2.5-7c-0.5-1.6-2.1-2.6-3.7-2.4c-1.8,0.2-2.3,1.4-2.6,3.1c-1.9,9.4-4,18.8-6,28.2c-1.8,8.4-3.6,16.7-5.4,25.1
			c-1.2,5.7-2.4,11.5-3.6,17.2c-0.3,1.4-0.6,1.8-2.3,1.5c-4-0.7-8.2-1.1-12.3-1.5c-1.3-0.1-1.9-0.2-1.5-1.9
			c2.4-9.9,4.6-19.8,6.9-29.8c1.6-6.8,3.2-13.6,4.9-20.4l5-20.5h5.7c1.4,0.1,2.8-0.6,3.4-1.9c2.6-4.8,5.5-9.6,8.5-14.6
			c1.3,1.7,2.7,3.2,3.8,4.9c2.3,3.2,4.4,6.6,6.7,9.8c0.4,0.5,1,0.8,1.6,0.9c2.2,0.3,4.4,0.4,7,0.6L135.8,156.5z"/>
		<path class="st0" d="M79.1,56.2l-7-5.8c0.6-2.1,2.4-3.3,4.2-4.3c4.4-2.5,9.3-4,14.3-4.4c4.7-0.5,9.5-0.6,14.2-0.4
			c6.7,0.4,13.2,1.8,19,5.5c0.2,0.1,0.4,0.2,0.5,0.3c3.3,2.6,3.3,3.1,0.1,5.6c-1.4,1.1-2.8,2.1-4.3,3.2
			C112.6,48.3,85.8,48.4,79.1,56.2z"/>
		<path class="st0" d="M104.5,68.4c9.6-3.5,18.2-7.7,25.4-15.2c1.7,3.6,3.5,6.8,4.8,10.3c0.8,2.2-0.7,4.2-2.1,5.9
			c-4.9,5.3-11.2,9.1-18.3,10.7c-1.1,0.4-2.3-0.2-2.7-1.2C109.5,75.3,107,72,104.5,68.4z"/>
		<path class="st0" d="M69.3,53.3C76.6,59.7,85,64.7,94,68c-2,3.7-3.9,7.4-5.9,11.2c-0.3,0.4-0.8,0.6-1.4,0.5
			c-2.8-0.5-5.5-1.2-8.1-2.3c-3.7-1.8-7.3-4.1-10.6-6.7c-1.7-1.4-2.7-3.9-3.8-6c-0.2-0.8-0.1-1.6,0.3-2.2
			C66.1,59.5,67.7,56.5,69.3,53.3z"/>
	</g>
</g>
</svg>
