<?xml version="1.0" encoding="utf-8"?>
<!-- Generator: Adobe Illustrator 19.2.1, SVG Export Plug-In . SVG Version: 6.00 Build 0)  -->
<svg version="1.1" id="Capa_1" xmlns="http://www.w3.org/2000/svg" xmlns:xlink="http://www.w3.org/1999/xlink" x="0px" y="0px"
	 viewBox="0 0 512 512" style="enable-background:new 0 0 512 512;" xml:space="preserve">
<style type="text/css">
	.st0{fill:#FFFFFF;}
</style>
<g>
	<path class="st0" d="M122.4,314.8H55.6c-3.8,0-7,3.1-7,7s3.1,7,7,7h66.8c3.8,0,7-3.1,7-7S126.3,314.8,122.4,314.8z"/>
	<path class="st0" d="M122.4,292.6h-22.3c-3.8,0-7,3.1-7,7s3.1,7,7,7h22.3c3.8,0,7-3.1,7-7S126.3,292.6,122.4,292.6z"/>
	<path class="st0" d="M55.6,306.5h22.3c3.8,0,7-3.1,7-7s-3.1-7-7-7H55.6c-3.8,0-7,3.1-7,7S51.8,306.5,55.6,306.5z"/>
	<path class="st0" d="M174.4,292.6h-22.3c-3.8,0-7,3.1-7,7s3.1,7,7,7h22.3c3.8,0,7-3.1,7-7S178.2,292.6,174.4,292.6z"/>
	<path class="st0" d="M174.4,314.8h-22.3c-3.8,0-7,3.1-7,7s3.1,7,7,7h22.3c3.8,0,7-3.1,7-7S178.2,314.8,174.4,314.8z"/>
	<path class="st0" d="M63.1,276.8h29.7c7.9,0,14.4-6.4,14.4-14.4v-14.8c0-7.9-6.4-14.4-14.4-14.4H63.1c-7.9,0-14.4,6.4-14.4,14.4
		v14.8C48.7,270.4,55.1,276.8,63.1,276.8z M93.2,247.6v14.8c0,0.3-0.2,0.5-0.5,0.5h-7.9v-15.8h7.9C93,247.1,93.2,247.3,93.2,247.6z
		 M62.6,247.6c0-0.3,0.2-0.5,0.5-0.5h7.9v15.8h-7.9c-0.3,0-0.5-0.2-0.5-0.5V247.6z"/>
	<path class="st0" d="M225.9,255c0-12-9.8-21.8-21.8-21.8h-14.8c-12,0-21.8,9.8-21.8,21.8c0,12,9.8,21.8,21.8,21.8h14.8
		C216.1,276.8,225.9,267,225.9,255z M181.3,255c0-4.3,3.5-7.9,7.9-7.9h14.8c4.3,0,7.9,3.5,7.9,7.9c0,4.3-3.5,7.9-7.9,7.9h-14.8
		C184.9,262.9,181.3,259.4,181.3,255z"/>
	<path class="st0" d="M478.6,181.3h-59.4c-7.6,0-13.8,5.9-14.3,13.4c-3.5-0.8-7-1.9-10.4-3.4l-74.1-31.7
		c-12.4-5.3-26.1-7.1-39.5-5.2l-70.1,10c-11.7,1.7-22,7.8-29,17.2l-11,14.6H40.8c-12,0-21.8,9.8-21.8,21.8v118.7
		c0,12,9.8,21.8,21.8,21.8h192.9c12,0,21.8-9.8,21.8-21.8v-15.3h41.1c18.2,0,36-3.1,53.1-9.4l32.5-11.8c7.4-2.7,15-4.7,22.7-6.2v5.5
		c0,7.9,6.4,14.4,14.4,14.4h59.4c7.9,0,14.4-6.4,14.4-14.4V195.6C493,187.7,486.5,181.3,478.6,181.3z M241.6,336.6
		c0,4.3-3.5,7.9-7.9,7.9H40.8c-4.3,0-7.9-3.5-7.9-7.9V217.9c0-4.3,3.5-7.9,7.9-7.9h133.6c0,0,0,0,0,0c0,0,0,0,0,0h59.4
		c4.3,0,7.9,3.5,7.9,7.9v54.7l-17.9,3c-9.2,1.5-16.3,8.3-18.5,17h-8.6c-3.8,0-7,3.1-7,7s3.1,7,7,7h9.4c3.3,8.7,11.7,14.8,21.5,14.8
		h14.1V336.6z M254.1,210h2.3c6,0,11.5,3.6,14,9.1l12.1,27.3c1.9,4.4,1.8,9.3-0.5,13.5c-2.3,4.2-6.3,7.1-11,7.8l-15.5,2.6v-52.4
		C255.5,215.1,255,212.5,254.1,210z M377.5,287.1L345,298.9c-15.5,5.7-31.8,8.5-48.3,8.5h-48c0,0,0,0,0,0c0,0,0,0,0,0h-21
		c-5,0-9.1-4.1-9.1-9.1c0-4.5,3.2-8.3,7.6-9l47.3-7.9c9-1.5,16.6-7,20.9-15c4.3-8,4.7-17.4,1-25.7l-12.1-27.3
		c-4.7-10.5-15.2-17.4-26.7-17.4h-22.6h-45.5l4.7-6.3c4.8-6.4,11.9-10.6,19.9-11.8l70.1-10c10.9-1.6,21.9-0.1,32,4.2l74.1,31.7
		c5.1,2.2,10.4,3.8,15.8,4.8v71.1C395.5,281.5,386.3,283.9,377.5,287.1z M479.1,299.5c0,0.3-0.2,0.5-0.5,0.5h-59.4
		c-0.3,0-0.5-0.2-0.5-0.5v-96.7c0,0,0-0.1,0-0.1v-7c0-0.3,0.2-0.5,0.5-0.5h59.4c0.3,0,0.5,0.2,0.5,0.5V299.5z"/>
	<path class="st0" d="M441.5,270.3c-1.8,0-3.6,0.7-4.9,2c-1.3,1.3-2,3.1-2,4.9s0.7,3.6,2,4.9c1.3,1.3,3.1,2,4.9,2
		c1.8,0,3.6-0.7,4.9-2c1.3-1.3,2-3.1,2-4.9s-0.7-3.6-2-4.9C445.1,271.1,443.3,270.3,441.5,270.3z"/>
</g>
</svg>
