<?xml version="1.0" encoding="utf-8"?>
<!-- Generator: Adobe Illustrator 19.2.1, SVG Export Plug-In . SVG Version: 6.00 Build 0)  -->
<svg version="1.1" id="Capa_1" xmlns="http://www.w3.org/2000/svg" xmlns:xlink="http://www.w3.org/1999/xlink" x="0px" y="0px"
	 viewBox="0 0 512 512" style="enable-background:new 0 0 512 512;" xml:space="preserve">
<style type="text/css">
	.st0{fill:#FFFFFF;}
</style>
<g>
	<g>
		<path class="st0" d="M34.4,334.8c8.2,6.8,14.9,15.3,14.2,21.1c-0.4,3.5-0.6,7-0.6,10.5c0,52.6,41.5,95.3,92.7,95.3
			c6.3,0,12.5-0.7,18.5-1.9c10-2.1,21.9,2,29,9.8c16.9,18.7,41,30.5,67.8,30.5c28.3,0,53.7-13.1,70.7-33.7
			c6.8-8.2,18.2-11.6,28.4-8.5c8.2,2.5,16.9,3.8,25.9,3.8c51.2,0,92.7-42.7,92.7-95.3c0-5.9-0.5-11.6-1.6-17.2
			c-1.7-9.4,2.9-21.1,10.5-28.5c18.1-17.4,29.5-42.1,29.5-69.6c0-29.9-13.4-56.6-34.4-74c-8.2-6.8-14.9-15.3-14.2-21.1
			c0.4-3.5,0.6-7,0.6-10.5c0-52.6-41.5-95.3-92.7-95.3c-6.3,0-12.5,0.7-18.5,1.9c-10,2.1-21.9-2-29-9.8
			c-16.9-18.7-41-30.5-67.8-30.5c-26.8,0-50.9,11.7-67.8,30.5c-7.1,7.9-19,11.9-29,9.8c-6-1.2-12.1-1.9-18.5-1.9
			C89.5,50.2,48,92.9,48,145.5c0,5.1,0.4,10,1.2,14.9c1.3,8.2-4.5,18.2-12.8,24.8C14.3,202.6,0,230,0,260.8
			C0,290.7,13.4,317.4,34.4,334.8z M132.1,264.3c2.1-3.6,7.3-3.7,12.1,0.5l48.3,34.1c2.6,1.6,5.1,2.4,7.5,2.4c5,0,8.9-3.6,12.7-7.1
			l154.7-154.9c9.7-10.5,19.1-14.2,25.2-10.2c2.8,1.9,4.7,4.7,5.2,7.9c0.6,3.8-0.8,8-3.8,11.7l-186,226c-2.7,3.3-6.1,5.1-9.7,5.1
			c-4.2,0-8-2.5-10.5-6.9l-54.6-98.4C131.1,270.7,130.6,266.9,132.1,264.3z"/>
	</g>
</g>
</svg>
