<?xml version="1.0" encoding="utf-8"?>
<!-- Generator: Adobe Illustrator 19.2.1, SVG Export Plug-In . SVG Version: 6.00 Build 0)  -->
<svg version="1.1" id="Capa_1" xmlns="http://www.w3.org/2000/svg" xmlns:xlink="http://www.w3.org/1999/xlink" x="0px" y="0px"
	 viewBox="0 0 512 512" style="enable-background:new 0 0 512 512;" xml:space="preserve">
<style type="text/css">
	.st0{fill:#FFFFFF;}
</style>
<path class="st0" d="M275.9,28h-39.8C126.6,28,37.5,117.1,37.5,226.6v8v59.6v39.6c0,6.1,5,11.1,11.1,11.1h4.5h12.3v7.8
	c0,6.1,5,11.1,11.1,11.1h20.2c20,0,36.2-16.2,36.2-36.2v-87c0-20-16.2-36.2-36.2-36.2H76.4c-6.1,0-11.1,5-11.1,11.1v7.8h-5.5
	c1.7-95.8,80.1-173.3,176.3-173.3h39.8c96.2,0,174.6,77.4,176.3,173.3h-5.5v-7.8c0-6.1-5-11.1-11.1-11.1h-20.2
	c-20,0-36.2,16.2-36.2,36.2v87c0,20,16.2,36.2,36.2,36.2h20.2c3.1,0,5.9-1.3,7.9-3.3v24c0,32.2-26.2,58.4-58.4,58.4h-66.2
	c-4.4-10.9-15.1-18.6-27.6-18.6h-30c-16.4,0-29.8,13.4-29.8,29.8s13.4,29.8,29.8,29.8h30c12.5,0,23.2-7.7,27.6-18.6H385
	c44.5,0,80.7-36.2,80.7-80.7v-40c5-1.1,8.8-5.5,8.8-10.9v-39.6v-59.6v-8C474.5,117.1,385.4,28,275.9,28z"/>
</svg>
