<?xml version="1.0" encoding="utf-8"?>
<!-- Generator: Adobe Illustrator 19.2.1, SVG Export Plug-In . SVG Version: 6.00 Build 0)  -->
<svg version="1.1" id="Capa_1" xmlns="http://www.w3.org/2000/svg" xmlns:xlink="http://www.w3.org/1999/xlink" x="0px" y="0px"
	 viewBox="0 0 512 512" style="enable-background:new 0 0 512 512;" xml:space="preserve">
<style type="text/css">
	.st0{fill:#767676;}
</style>
<g>
	<path class="st0" d="M429.9,344.8v-7.4c0-28.6-23.2-51.8-51.8-51.8s-51.8,23.2-51.8,51.8v7.4h-29.6V478h162.8V344.8H429.9z
		 M341.1,337.4c0-20.4,16.6-37,37-37s37,16.6,37,37v7.4h-74V337.4z M444.7,463.2H311.5V359.6h14.8h103.6h14.8V463.2z"/>
	<path class="st0" d="M378.1,381.8c-16.3,0-29.6,13.3-29.6,29.6c0,13.8,9.5,25.2,22.2,28.5v8.5c0,4.1,3.3,7.4,7.4,7.4
		s7.4-3.3,7.4-7.4v-8.5c12.7-3.3,22.2-14.8,22.2-28.5C407.7,395.1,394.4,381.8,378.1,381.8z M378.1,426.2c-8.2,0-14.8-6.6-14.8-14.8
		s6.6-14.8,14.8-14.8s14.8,6.6,14.8,14.8S386.3,426.2,378.1,426.2z"/>
	<path class="st0" d="M211.6,167.2H293c14.3,0,25.9-11.6,25.9-25.9v-11.1c0-4.1-3.3-7.4-7.4-7.4c-4.1,0-7.4,3.3-7.4,7.4v11.1
		c0,6.1-5,11.1-11.1,11.1h-81.3c-6.1,0-11.1-5-11.1-11.1v-11.1c0-4.1-3.3-7.4-7.4-7.4c-4.1,0-7.4,3.3-7.4,7.4v11.1
		C185.7,155.6,197.3,167.2,211.6,167.2z"/>
	<path class="st0" d="M267.1,367h-55.5c-6.1,0-11.1-5-11.1-11.1v-11.1c0-4.1-3.3-7.4-7.4-7.4c-4.1,0-7.4,3.3-7.4,7.4v11.1
		c0,14.3,11.6,25.9,25.9,25.9h55.5c4.1,0,7.4-3.3,7.4-7.4C274.5,370.3,271.2,367,267.1,367z"/>
	<path class="st0" d="M259.7,463.2H73.5c-3.4,0-6.2-2.8-6.2-6.2V263.4h370v37c0,4.1,3.3,7.4,7.4,7.4c4.1,0,7.4-3.3,7.4-7.4V55
		c0-11.6-9.4-21-21-21H73.5c-11.6,0-21,9.4-21,21V457c0,11.6,9.4,21,21,21h186.2c4.1,0,7.4-3.3,7.4-7.4
		C267.1,466.5,263.8,463.2,259.7,463.2z M73.5,48.8h357.7c3.4,0,6.2,2.8,6.2,6.2v193.6h-370V55C67.3,51.6,70.1,48.8,73.5,48.8z"/>
</g>
</svg>
