<?xml version="1.0" encoding="utf-8"?>
<!-- Generator: Adobe Illustrator 19.2.1, SVG Export Plug-In . SVG Version: 6.00 Build 0)  -->
<svg version="1.1" id="Capa_1" xmlns="http://www.w3.org/2000/svg" xmlns:xlink="http://www.w3.org/1999/xlink" x="0px" y="0px"
	 viewBox="0 0 512 512" style="enable-background:new 0 0 512 512;" xml:space="preserve">
<style type="text/css">
	.st0{fill:#FFFFFF;}
</style>
<g>
	<path class="st0" d="M284.4,255.1l-17.2,36.7h-20.4L229,255.1c0-3.5,2.9-6.4,6.4-6.4H278C281.5,248.8,284.4,251.6,284.4,255.1z
		 M265.3,295.7h-17.2c-0.7,0-1.2,0.5-1.3,1.2l-8.3,126.7c0,0.3,0.1,0.5,0.2,0.8l16.6,26.1c0.2,0.4,0.6,0.6,1.1,0.6c0,0,0,0,0,0
		c0.4,0,0.8-0.2,1.1-0.6l17.8-26.1c0.2-0.2,0.2-0.5,0.2-0.8l-8.9-126.7C266.5,296.2,265.9,295.7,265.3,295.7z M256,221.6
		c53.8,0,97.4-43.6,97.4-97.4S309.8,26.9,256,26.9c-53.8,0-97.4,43.6-97.4,97.4S202.2,221.6,256,221.6z M422,353V454h-0.7l-6.5,3.3
		c-3.3,1.7-56.4,27.8-148.1,27.8c-46.9,0-103.9-6.9-169.5-27.3l-7-2.2L90,454V353c0-68.8,55.9-124.7,124.7-124.7h82.6
		C366.1,228.3,422,284.2,422,353z M408.7,353c0-61.4-50-111.4-111.4-111.4h-82.6c-61.4,0-111.4,50-111.4,111.4v87.8l0,3.1
		c188.1,58.7,304.1,1,305.3,0.4l0.2-3.5L408.7,353L408.7,353z"/>
</g>
</svg>
