<?xml version="1.0" encoding="utf-8"?>
<!-- Generator: Adobe Illustrator 19.2.1, SVG Export Plug-In . SVG Version: 6.00 Build 0)  -->
<svg version="1.1" id="Layer_1" xmlns="http://www.w3.org/2000/svg" xmlns:xlink="http://www.w3.org/1999/xlink" x="0px" y="0px"
	 viewBox="0 0 200 200" style="enable-background:new 0 0 200 200;" xml:space="preserve">
<style type="text/css">
	.st0{fill:#145886;}
	.st1{fill:#88C665;}
	.st2{fill:none;stroke:#145886;stroke-miterlimit:2.61;}
</style>
<title>logo_ca</title>
<g>
	<path class="st0" d="M113.9,60.4c2.8-3.3,6.3-4.3,9.6,0l40.7,81.1c0.9,1.9,0.5,3-1.4,3.2l-6.6-0.1c-1.3,0.1-2.5-0.6-3.1-1.7
		l-32.6-66.6c-2.6-5.8-4.2-3.9-5.7,0l-25.4,52.3c-4.8,10.9-9.8,16.8-18,16c-24-0.4-43.2-20.2-42.9-44.2C29,76.9,48,57.9,71.6,57.5
		h20.3c2.6,0,4.6,2.1,4.6,4.6l0,0c0,2.6-2.1,4.6-4.6,4.6H73.1l0,0h-1.3h-0.3c-18.9,0-34.3,15.3-34.3,34.3c0,0,0,0,0,0
		c-0.9,20.8,21.3,36.5,34.3,34.3c3.3-0.2,6.2-3.3,9.3-9.3L113.9,60.4L113.9,60.4L113.9,60.4z"/>
	<path class="st0" d="M117.7,75.7l-1.2,0.6l32.7,67.5c1.1,1.9,2.5,3.1,4,3.2l0.1-1.2c-1.4-0.3-2.6-1.7-3.5-3.8l-19-39.4L117.7,75.7
		L117.7,75.7z"/>
	<path class="st1" d="M101.4,119.8c29-6.9,55.6-17.7,81.1-30.3c-23,13.8-45.8,27.2-64.2,33.6c1.4,4.9,3.3,9.3,4.7,14.2l-7.5,4.7
		L101.4,119.8L101.4,119.8z"/>
	<path class="st2" d="M44.5,30h111.1c19.8,0,36,15.8,36,35v70c0,19.3-16.2,35-36,35H44.5c-19.8,0-36-15.8-36-35V65
		C8.5,45.7,24.7,30,44.5,30L44.5,30z"/>
</g>
</svg>
