<?xml version="1.0" encoding="utf-8"?>
<!-- Generator: Adobe Illustrator 19.2.1, SVG Export Plug-In . SVG Version: 6.00 Build 0)  -->
<svg version="1.1" id="Capa_1" xmlns="http://www.w3.org/2000/svg" xmlns:xlink="http://www.w3.org/1999/xlink" x="0px" y="0px"
	 viewBox="0 0 512 512" style="enable-background:new 0 0 512 512;" xml:space="preserve">
<style type="text/css">
	.st0{fill:#767676;}
</style>
<g>
	<path class="st0" d="M444.9,132.1c-0.7-3.8-4.4-6.4-8.3-5.6l-47.2,9c-12.8,2.5-23.8,10.5-30,21.9l-0.2,0.4c0,0,0,0.1-0.1,0.1
		c-13.3,24.4-32.2,46-54.7,62.2l-11.1,8c-0.3,0.2-0.6,0.5-0.9,0.7l-75.9,75.9c-7.6,7.6-19.5,8.6-28.3,2.3c-0.9-0.7-1.8-1.4-2.7-2.3
		c-4.1-4.1-6.4-9.6-6.4-15.5c0-5.8,2.3-11.3,6.4-15.5l50-50c18.3-18.3,20.5-46.8,5.2-67.8c-9.8-13.4-25.6-21.5-42.2-21.5
		c-1,0-4.4,0.2-5.8,0.3c-12.7,0.8-24.7,6.2-33.7,15.2l-41.6,41.6c-1.3,1.3-2,3.1-2.1,4.9l-1.1,74.6c-0.1,4.2-1.7,8.1-4.5,11.1h-5.3
		c-3.3,0-6,2.2-6.8,5.3c0,0,0,0,0,0c-9.2,0-16.6-7.4-16.6-16.6c0-0.2,3.9-95.9,3.9-95.9c0.1-3.3,1.5-6.4,3.8-8.8L194.2,57.5
		c6.3-6.3,14.8-9.8,23.7-9.8h127.2c3.9,0,7.1-3.2,7.1-7.1s-3.2-7.1-7.1-7.1H217.9c-12.8,0-24.8,5-33.8,14c0,0-0.1,0.1-0.1,0.1
		L78.6,156.5c-4.7,4.8-7.5,11.3-7.7,18c0,0-3.9,96-3.9,96.4c0,16.9,13.7,30.6,30.5,30.7v169.6c0,3.9,3.2,7.1,7.1,7.1h79.5
		c3.9,0,7.1-3.2,7.1-7.1V324c3.2,0.9,6.6,1.4,9.9,1.4c9.3,0,18.4-3.6,25.5-10.6l75.5-75.5l10.6-7.7c24.3-17.5,44.6-40.7,58.9-66.9
		l0.2-0.4c0,0,0-0.1,0.1-0.1c4.2-7.8,11.6-13.2,20.2-14.8l47.2-9C443.1,139.7,445.6,136,444.9,132.1z M165.7,296.5
		c1.2,5.9,3.8,11.5,7.8,16.1h-61.8v-16.1L165.7,296.5L165.7,296.5z M111.7,417.8H177V434h-65.3V417.8z M111.7,403.6v-16.2H177v16.2
		H111.7z M111.7,373.3v-16.2H177v16.2H111.7z M111.7,342.9v-16.2H177v16.2H111.7z M169.1,160.2c6.6-6.6,15.3-10.5,24.5-11.1
		c2-0.1,4.5-0.2,5-0.2c9.6,0,18.9,3.7,25.9,10.2l-24.6,17c-3.2,2.2-4,6.6-1.8,9.8c1.4,2,3.6,3.1,5.8,3.1c1.4,0,2.8-0.4,4-1.3
		l25-17.3c7,14.4,4.3,31.8-7.4,43.5l-7.1,7.1l-46.1,0.8c-8.5,0-15.4-7-15.4-15.5v-34.1L169.1,160.2z M128.5,271.4l1-71.7l13.2-13.2
		v19.9c0,16.3,13.3,29.6,29.6,29.6c0,0,0.1,0,0.1,0l31.5-0.6l-28.4,28.4c-5.1,5.1-8.5,11.5-9.9,18.4h-39.4
		C127.7,278.9,128.4,275.2,128.5,271.4z M111.7,464.3v-16.1H177v16.1H111.7z"/>
	<path class="st0" d="M294,434h-79.5c-3.9,0-7.1,3.2-7.1,7.1v30.3c0,3.9,3.2,7.1,7.1,7.1H294c3.9,0,7.1-3.2,7.1-7.1v-30.3
		C301.1,437.2,297.9,434,294,434z M286.9,464.3h-65.3v-16.1h65.3V464.3z"/>
</g>
</svg>
